# xmcd CD database file
#
# Track frame offsets:
#	150
#	15717
#	29791
#	45424
#	58761
#	72431
#	85782
#	100859
#	111969
#	123923
#	134763
#	144627
#	158533
#	173131
#	183880
#	199130
#	212577
#	226462
#	239559
#	253997
#
# Disc length: 3545 seconds
#
# Revision: 1
# Processed by: cddbd v1.4PL0 Copyright (c) Steve Scherf et al.
# Submitted via: NeoAudio 9.9.9
#
DISCID=250dd714
DTITLE=Nat King Cole - The Golden Years Of Nat King Cole And His Trio CD2
DYEAR=1900
DGENRE=Jazz
TTITLE0=Too Young
TTITLE1=The Best Man
TTITLE2=Don't Blame Me
TTITLE3=It's Only A Paper Moon
TTITLE4=What Is This Thing Called Love
TTITLE5=Shoo Shoo Baby
TTITLE6=This Will Make You Laugh
TTITLE7=Beautiful Moons Ago
TTITLE8=I Thought You Ought To Know
TTITLE9=Ther Will Never Be Another You
TTITLE10=My Funny Valentine
TTITLE11=I Realise Now
TTITLE12=I Want To Thank You Folks
TTITLE13=I Got Rythm
TTITLE14=Just You, Just Me
TTITLE15=I'm A Shy Guy
TTITLE16=You Must Be Blind
TTITLE17=Besame Mucho
TTITLE18=The Christmas Song
TTITLE19=Nature Boy
EXTD=
EXTT0=
EXTT1=
EXTT2=
EXTT3=
EXTT4=
EXTT5=
EXTT6=
EXTT7=
EXTT8=
EXTT9=
EXTT10=
EXTT11=
EXTT12=
EXTT13=
EXTT14=
EXTT15=
EXTT16=
EXTT17=
EXTT18=
EXTT19=
PLAYORDER=
